<svg width="24" height="24" viewBox="0 0 24 24" fill="none" xmlns="http://www.w3.org/2000/svg">
<path d="M21.782 15.7472H18.2912C17.5072 15.7472 17.436 16.0725 17.3303 16.7688C17.0447 18.4464 15.4428 19.4725 13.5194 19.4725C11.3111 19.4725 9.53386 17.735 9.39073 15.7418H14.3267C14.9324 15.7418 15.3596 15.5327 15.3596 14.7284V13.7285C15.3596 12.9265 14.9324 12.7406 14.3267 12.7406H9.35555V11.2504H14.3267C14.9324 11.2504 15.3596 11.042 15.3596 10.237V9.23707C15.3596 8.43427 14.9324 8.22364 14.3267 8.22364H9.42674C9.67634 6.40668 11.3944 4.49222 13.4962 4.49222C15.4197 4.49222 16.5103 5.25004 17.2599 6.4029C17.5447 6.82267 17.5807 7.4853 18.3288 7.4853H21.7716C22.5909 7.4853 22.8764 7.19296 22.8764 6.35571C22.4132 1.91964 18.0094 0 13.5913 0C9.38999 0 4.20062 2.84313 4.09342 8.2229H2.15651C1.5164 8.2229 1.1236 8.43205 1.1236 9.23633V10.2363C1.1236 11.0398 1.51566 11.2497 2.15651 11.2497H3.38878V12.7391H2.15651C1.5164 12.7391 1.1236 12.9483 1.1236 13.7526V14.7292C1.1236 15.5313 1.51566 15.7427 2.15651 15.7427H4.0912V15.8836C4.0912 21.3675 9.28131 24 13.5194 24C17.9374 24 22.8501 21.3473 22.8501 16.8393C22.8501 16.0012 22.5653 15.7472 21.782 15.7472Z" fill="white"/>
</svg>
