<svg width="24" height="24" viewBox="0 0 24 24" fill="none" xmlns="http://www.w3.org/2000/svg">
<path d="M13.0909 12.3636C16.4996 12.3636 19.2727 9.59047 19.2727 6.18182C19.2727 2.77316 16.4996 0 13.0909 0C13.0776 0 13.0644 0.000218182 13.0512 0.000727273H8.00145C8.00094 0.000727273 8.00051 0.000654545 8.00007 0.000654545C7.3976 0.000654545 6.90916 0.489091 6.90916 1.09156V1.09164V11.2727V14.5455H5.81818C5.21571 14.5455 4.72727 15.0339 4.72727 15.6364C4.72727 16.2388 5.21571 16.7273 5.81818 16.7273H6.90909V22.9091C6.90909 23.5116 7.39753 24 8 24C8.60247 24 9.09091 23.5116 9.09091 22.9091V16.7273H13.0909C13.6934 16.7273 14.1818 16.2388 14.1818 15.6364C14.1818 15.0339 13.6934 14.5455 13.0909 14.5455H9.09091V12.3636H13.0909ZM13.0909 2.18255C13.1027 2.18255 13.1145 2.18233 13.1261 2.18196C15.3156 2.20087 17.0909 3.98793 17.0909 6.18182C17.0909 8.38742 15.2965 10.1818 13.0909 10.1818H9.09091V2.18255H13.0909Z" fill="white"/>
</svg>
